<?xml version="1.0" standalone="no"?>
<!DOCTYPE svg PUBLIC "-//W3C//DTD SVG 20010904//EN"
 "http://www.w3.org/TR/2001/REC-SVG-20010904/DTD/svg10.dtd">
<svg version="1.0" xmlns="http://www.w3.org/2000/svg"
 width="220.000000pt" height="70.000000pt" viewBox="0 0 220.000000 70.000000"
 preserveAspectRatio="xMidYMid meet">

<g transform="translate(0.000000,70.000000) scale(0.100000,-0.100000)"
fill="#000000" stroke="none">
<path d="M521 664 c-68 -18 -126 -53 -113 -66 7 -7 30 -1 69 18 51 25 69 29
148 29 77 0 98 -4 149 -27 39 -19 63 -25 74 -19 35 20 -143 81 -233 80 -22 0
-64 -7 -94 -15z"/>
<path d="M483 351 c1 -121 5 -165 15 -169 9 -3 12 20 12 92 0 53 3 96 8 96 4
0 29 -41 55 -90 27 -50 51 -90 55 -90 4 0 30 43 57 95 l50 94 5 -96 c3 -65 9
-98 18 -101 9 -3 12 33 12 160 l0 163 -67 -122 c-37 -68 -70 -123 -73 -123 -4
0 -39 57 -78 128 l-72 127 3 -164z"/>
<path d="M924 491 c-39 -18 -73 -54 -87 -93 -11 -32 20 -20 41 15 21 37 75 67
119 67 37 0 90 -33 111 -70 20 -36 47 -41 37 -7 -11 35 -66 86 -105 97 -49 14
-69 12 -116 -9z"/>
<path d="M237 458 c-13 -24 -52 -96 -86 -160 -50 -97 -58 -118 -43 -118 12 0
36 36 82 125 36 68 68 125 71 125 3 0 34 -54 69 -121 57 -108 81 -141 95 -127
4 3 -149 304 -160 316 -2 2 -14 -16 -28 -40z"/>
<path d="M1210 485 c0 -12 13 -15 55 -15 l55 0 0 -146 c0 -112 3 -145 13 -142
9 3 13 44 15 146 l3 142 49 0 c38 0 50 4 50 15 0 13 -20 15 -120 15 -100 0
-120 -2 -120 -15z"/>
<path d="M1512 391 c3 -118 12 -141 71 -185 36 -26 109 -26 145 1 51 38 66 78
70 190 4 87 2 103 -11 103 -12 0 -16 -19 -19 -102 -4 -118 -22 -158 -83 -178
-30 -10 -41 -9 -72 7 -57 28 -73 64 -76 177 -1 72 -5 96 -15 96 -11 0 -13 -23
-10 -109z"/>
<path d="M1850 346 c0 -128 3 -155 15 -160 13 -5 15 15 15 139 l0 145 58 0
c60 -1 81 -10 100 -47 19 -35 14 -63 -17 -94 -23 -23 -38 -29 -72 -29 l-43 0
59 -60 c33 -33 68 -60 79 -60 17 0 12 8 -23 44 l-43 44 35 17 c35 16 67 64 67
99 0 35 -30 85 -59 100 -19 10 -56 16 -101 16 l-70 0 0 -154z"/>
<path d="M835 303 c23 -93 129 -146 218 -109 42 17 97 80 97 111 0 35 -17 31
-34 -7 -22 -53 -59 -80 -113 -85 -62 -5 -108 22 -131 77 -20 47 -48 56 -37 13z"/>
<path d="M1445 100 c-17 -28 134 -81 235 -82 80 0 189 33 198 61 5 16 -14 13
-103 -19 -79 -29 -162 -23 -253 20 -73 34 -69 33 -77 20z"/>
</g>
</svg>
